<svg aria-hidden="true" style="width:0;height:0;position:absolute;overflow:hidden" xmlns="http://www.w3.org/2000/svg"><defs><symbol id="vector" viewBox="0 0 19 32"><path fill="none" stroke-linejoin="round" stroke-linecap="round" stroke-width="6.4" d="M3.2 3.2 16 16 3.2 28.8"/></symbol><symbol id="logo" viewBox="0 0 32 32"><path fill="#e09d70" style="fill:var(--color2,#e09d70)" d="M21.345 12.906 16.648 32h-1.296l-4.697-19.094z"/><path fill="#d18b5c" style="fill:var(--color3,#d18b5c)" d="m21.258 13.259-.096.388-1.387-.741h.822l.66.352zm-.284 1.153-2.82-1.506h-.822l3.546 1.894.095-.388zm-.284 1.154-4.979-2.66h-.822l5.706 3.048.095-.388zm-.283 1.153-7.139-3.813h-.822l7.865 4.201.095-.388zm-.284 1.154-9.298-4.967h-.169l.099.401 9.273 4.953.096-.388zm-.284 1.153-.095.388-8.62-4.604-.124-.505 8.84 4.722zm-.284 1.154-.096.388-7.967-4.255-.124-.505 8.187 4.373zm-.283 1.153-.096.388-7.313-3.906-.124-.505 7.533 4.024zm-.284 1.154-6.88-3.675.124.506 6.66 3.557.096-.388zm-.284 1.153-6.227-3.326.124.506 6.007 3.208.096-.388zm-.284 1.154-.095.388-5.353-2.859-.124-.505 5.573 2.977zm-.283 1.153-.095.388-4.7-2.51-.124-.505 4.92 2.628zm-.284 1.154-4.267-2.279.124.506 4.047 2.162.095-.388zm-.284 1.153-3.613-1.93.124.505 3.393 1.813.096-.388zm-.284 1.154-.095.388-2.74-1.463-.124-.505 2.96 1.581zm-.283 1.153-2.306-1.232.124.505 2.086 1.114.096-.388zm-.284 1.154-.07.285h-.218l-1.24-.663-.124-.505 1.653.883z"/><path fill="#f7c29e" style="fill:var(--color4,#f7c29e)" d="m21.345 12.906-.103.42-9.265 4.949-.095-.388 9.326-4.981h.138zm-.349 1.418-8.832 4.717.096.388 8.612-4.6.124-.505zm-.37 1.502-8.178 4.368.096.388 7.958-4.251.124-.505zm-.369 1.503-7.525 4.019.096.388 7.305-3.902.124-.505zm-.37 1.502-.124.506-6.652 3.553-.096-.388 6.872-3.67zm-.369 1.503-.124.505-5.998 3.204-.095-.388 6.218-3.321zm-.37 1.502-5.565 2.972.095.388 5.345-2.855.124-.506zm-.37 1.502-4.912 2.623.096.388 4.692-2.506.124-.506zm-.369 1.503-.124.506-4.038 2.157-.095-.388 4.258-2.274zm-.37 1.502-.124.505-3.385 1.808-.096-.388 3.605-1.925zm-.369 1.503-2.951 1.577.095.388 2.732-1.459.124-.506zm-.37 1.502-.124.506-2.078 1.11-.096-.388 2.298-1.228zm-.37 1.503-1.645.879.066.27h.249l1.205-.643.124-.506zm-5.238-13.729 7.893-4.216h-.822l-7.166 3.828.096.388zm-.283-1.154 5.733-3.062h-.822l-5.007 2.674.095.388zm-.284-1.153 3.574-1.909h-.822l-2.847 1.521.095.388zm-.284-1.154 1.414-.755h-.822l-.687.367.095.388z"/><path fill="#fe7e8d" style="fill:var(--color5,#fe7e8d)" d="M19.112 13.017c-2.855 1.265-9.547 1.644-9.057-1.391s12.369-1.228 9.057 1.391z"/><path fill="#fce3c8" style="fill:var(--color6,#fce3c8)" d="M12.258 8.429c-2.774.057-3.797 2.164-1.519 3.622 2.949 1.888 11.335 2.342 11.755.489s-6.102-4.196-10.236-4.111z"/><path fill="#fe7e8d" style="fill:var(--color5,#fe7e8d)" d="M13.706 6.278c-2.752-.133-5.08 1.776-2.252 3.463 3.11 1.855 7.776-.099 10.834 2.002.717-1.825-4.481-5.267-8.582-5.465z"/><path fill="#fce3c8" style="fill:var(--color6,#fce3c8)" d="M21.603 9.878c-2.922-2.401-5.331-1.173-8.272-2.277s-2.094-3.395-.608-3.523c.059-1.039-.344-2.771 2.798-4.062.319 1.891.674 4.343 2.905 5.225s3.742 3.027 3.178 4.637z"/><path fill="#fe7e8d" style="fill:var(--color5,#fe7e8d)" d="M12.471 3.657c-.298-1.094.591-2.554 2.531-3.475.353-.167.79-.346.835.093.184 1.785.595 4.177 2.588 4.966.582.23 1.118.563 1.58.958-1.669-1.087-7.047-.749-7.535-2.542z"/></symbol><symbol id="arrow" viewBox="0 0 32 32"><path d="m19.414 27.414 10-10a2 2 0 0 0 0-2.828l-10-10a2 2 0 1 0-2.828 2.828L23.172 14H4a2 2 0 1 0 0 4h19.172l-6.586 6.586c-.39.39-.586.902-.586 1.414s.195 1.024.586 1.414a2 2 0 0 0 2.828 0z"/></symbol><symbol id="telegram" viewBox="0 0 33 32"><path fill="#fea5bb" style="fill:var(--color1,#fea5bb)" d="M32.235 16c0 8.837-7.163 16-16 16s-16-7.163-16-16 7.163-16 16-16 16 7.163 16 16z"/><path fill="#fff" style="fill:var(--color2,#fff)" d="m13.102 18.375-.318 4.169c.454 0 .651-.182.887-.401l2.13-1.9 4.414 3.017c.81.421 1.38.199 1.598-.695l2.898-12.673c.257-1.117-.433-1.554-1.222-1.28L6.457 14.698c-1.162.421-1.145 1.026-.198 1.3l4.355 1.264 10.115-5.907c.476-.294.909-.131.553.163L13.1 18.375z"/></symbol><symbol id="github" viewBox="0 0 32 32"><path fill="#fea5bb" style="fill:var(--color1,#fea5bb)" d="M32 16c0 8.837-7.163 16-16 16S0 24.837 0 16 7.163 0 16 0s16 7.163 16 16z"/><path fill="#fff" style="fill:var(--color2,#fff)" d="M16 6.588c-5.169 0-9.412 4.242-9.412 9.412 0 4.411 3.095 8.419 7.206 9.412v-3.114a2.307 2.307 0 0 1-1.197-.03c-.556-.164-1.008-.535-1.344-1.1-.214-.361-.593-.752-.988-.723l-.097-1.099c.855-.073 1.595.521 2.034 1.258.195.328.419.52.708.605.278.082.577.043.926-.081.088-.698.407-.959.649-1.326v-.001c-2.451-.366-3.428-1.666-3.816-2.693-.514-1.363-.238-3.066.671-4.142.018-.021.05-.076.037-.114-.417-1.258.091-2.3.11-2.41.481.142.559-.143 2.088.786l.264.159c.111.066.076.028.186.02A7.984 7.984 0 0 1 16 11.129a8.016 8.016 0 0 1 2.002.285l.086.009c-.008-.001.023-.005.075-.036 1.911-1.157 1.842-.779 2.354-.946.018.111.519 1.169.107 2.411-.056.171 1.657 1.739.708 4.256-.388 1.027-1.365 2.328-3.816 2.693v.001c.314.479.692.734.69 1.722v3.887c4.111-.993 7.206-5 7.206-9.412 0-5.169-4.242-9.412-9.412-9.412z"/></symbol><symbol id="facebook" viewBox="0 0 33 32"><path fill="#fea5bb" style="fill:var(--color1,#fea5bb)" d="M16.471 32c8.837 0 16-7.163 16-16s-7.163-16-16-16-16 7.163-16 16 7.163 16 16 16z"/><path fill="#fff" style="fill:var(--color2,#fff)" d="M20.916 15.981h-2.61v9.618h-3.955v-9.618H12.47v-3.38h1.881v-2.188c0-1.564.739-4.014 3.99-4.014l2.929.012v3.281h-2.125c-.349 0-.839.175-.839.921v1.989h2.955l-.346 3.377z"/></symbol><symbol id="close" viewBox="0 0 32 32"><path fill="#fff" style="fill:var(--color4,#fff)" d="M32 16c0 8.837-7.163 16-16 16S0 24.837 0 16 7.163 0 16 0s16 7.163 16 16z"/><path fill="none" stroke="#000" style="stroke:var(--color5,#000)" stroke-width="1.067" d="M31.467 16c0 8.542-6.925 15.467-15.467 15.467S.533 24.542.533 16C.533 7.458 7.458.533 16 .533S31.467 7.458 31.467 16z"/><path d="M22.4 10.782 21.218 9.6l-4.685 4.685L11.848 9.6l-1.182 1.182 4.685 4.685-4.685 4.685 1.182 1.182 4.685-4.685 4.685 4.685 1.182-1.182-4.685-4.685 4.685-4.685z"/></symbol><symbol id="mob-menu" viewBox="0 0 32 32"><path d="M6.4 11.734V9.6h19.2v2.134H6.4zm0 5.332h19.2v-2.133H6.4v2.133zm0 5.334h19.2v-2.134H6.4V22.4z"/></symbol><symbol id="mob-close" viewBox="0 0 32 32"><path d="M23.734 10.304 22.23 8.8l-5.963 5.962L10.305 8.8l-1.504 1.504 5.962 5.962-5.962 5.963 1.504 1.504 5.962-5.963 5.963 5.963 1.504-1.504-5.963-5.963 5.963-5.962z"/></symbol><symbol id="burger" viewBox="0 0 46 32"><path fill="none" stroke="#d41443" style="stroke:var(--color1,#d41443)" stroke-width="2.286" d="M0 2.286h45.714M0 16h45.714M0 29.714h45.714"/></symbol></defs></svg>