<svg aria-hidden="true" style="position: absolute; width: 0; height: 0; overflow: hidden;" version="1.1" xmlns="http://www.w3.org/2000/svg" xmlns:xlink="http://www.w3.org/1999/xlink">
<defs>
<symbol id="vector" viewBox="0 0 19 32">
<path fill="none" stroke="#d41443" style="stroke: var(--color1, #d41443)" stroke-linejoin="round" stroke-linecap="round" stroke-miterlimit="4" stroke-width="6.4" d="M3.2 3.2l12.8 12.8-12.8 12.8"></path>
</symbol>
<symbol id="logo" viewBox="0 0 32 32">
<path fill="#e09d70" style="fill: var(--color2, #e09d70)" d="M21.345 12.906l-4.697 19.094h-1.296l-4.697-19.094z"></path>
<path fill="#d18b5c" style="fill: var(--color3, #d18b5c)" d="M21.258 13.259l-0.096 0.388-1.387-0.741h0.822l0.66 0.352zM20.974 14.412l-2.82-1.506h-0.822l3.546 1.894 0.095-0.388zM20.69 15.566l-4.979-2.66h-0.822l5.706 3.048 0.095-0.388zM20.407 16.719l-7.139-3.813h-0.822l7.865 4.201 0.095-0.388zM20.123 17.873l-9.298-4.967h-0.169l0.099 0.401 9.273 4.953 0.096-0.388zM19.839 19.026l-0.095 0.388-8.62-4.604-0.124-0.505 8.84 4.722zM19.555 20.18l-0.096 0.388-7.967-4.255-0.124-0.505 8.187 4.373zM19.272 21.333l-0.096 0.388-7.313-3.906-0.124-0.505 7.533 4.024zM18.988 22.487l-6.88-3.675 0.124 0.506 6.66 3.557 0.096-0.388zM18.704 23.64l-6.227-3.326 0.124 0.506 6.007 3.208 0.096-0.388zM18.42 24.794l-0.095 0.388-5.353-2.859-0.124-0.505 5.573 2.977zM18.137 25.947l-0.095 0.388-4.7-2.51-0.124-0.505 4.92 2.628zM17.853 27.101l-4.267-2.279 0.124 0.506 4.047 2.162 0.095-0.388zM17.569 28.254l-3.613-1.93 0.124 0.505 3.393 1.813 0.096-0.388zM17.285 29.408l-0.095 0.388-2.74-1.463-0.124-0.505 2.96 1.581zM17.002 30.561l-2.306-1.232 0.124 0.505 2.086 1.114 0.096-0.388zM16.718 31.715l-0.070 0.285h-0.218l-1.24-0.663-0.124-0.505 1.653 0.883z"></path>
<path fill="#f7c29e" style="fill: var(--color4, #f7c29e)" d="M21.345 12.906l-0.103 0.42-9.265 4.949-0.095-0.388 9.326-4.981h0.138zM20.996 14.324l-8.832 4.717 0.096 0.388 8.612-4.6 0.124-0.505zM20.626 15.826l-8.178 4.368 0.096 0.388 7.958-4.251 0.124-0.505zM20.257 17.329l-7.525 4.019 0.096 0.388 7.305-3.902 0.124-0.505zM19.887 18.831l-0.124 0.506-6.652 3.553-0.096-0.388 6.872-3.67zM19.518 20.334l-0.124 0.505-5.998 3.204-0.095-0.388 6.218-3.321zM19.148 21.836l-5.565 2.972 0.095 0.388 5.345-2.855 0.124-0.506zM18.778 23.338l-4.912 2.623 0.096 0.388 4.692-2.506 0.124-0.506zM18.409 24.841l-0.124 0.506-4.038 2.157-0.095-0.388 4.258-2.274zM18.039 26.343l-0.124 0.505-3.385 1.808-0.096-0.388 3.605-1.925zM17.67 27.846l-2.951 1.577 0.095 0.388 2.732-1.459 0.124-0.506zM17.3 29.348l-0.124 0.506-2.078 1.11-0.096-0.388 2.298-1.228zM16.93 30.851l-1.645 0.879 0.066 0.27h0.249l1.205-0.643 0.124-0.506zM11.692 17.122l7.893-4.216h-0.822l-7.166 3.828 0.096 0.388zM11.409 15.968l5.733-3.062h-0.822l-5.007 2.674 0.095 0.388zM11.125 14.815l3.574-1.909h-0.822l-2.847 1.521 0.095 0.388zM10.841 13.661l1.414-0.755h-0.822l-0.687 0.367 0.095 0.388z"></path>
<path fill="#fe7e8d" style="fill: var(--color5, #fe7e8d)" d="M19.112 13.017c-2.855 1.265-9.547 1.644-9.057-1.391s12.369-1.228 9.057 1.391z"></path>
<path fill="#fce3c8" style="fill: var(--color6, #fce3c8)" d="M12.258 8.429c-2.774 0.057-3.797 2.164-1.519 3.622 2.949 1.888 11.335 2.342 11.755 0.489s-6.102-4.196-10.236-4.111z"></path>
<path fill="#fe7e8d" style="fill: var(--color5, #fe7e8d)" d="M13.706 6.278c-2.752-0.133-5.080 1.776-2.252 3.463 3.11 1.855 7.776-0.099 10.834 2.002 0.717-1.825-4.481-5.267-8.582-5.465z"></path>
<path fill="#fce3c8" style="fill: var(--color6, #fce3c8)" d="M21.603 9.878c-2.922-2.401-5.331-1.173-8.272-2.277s-2.094-3.395-0.608-3.523c0.059-1.039-0.344-2.771 2.798-4.062 0.319 1.891 0.674 4.343 2.905 5.225s3.742 3.027 3.178 4.637z"></path>
<path fill="#fe7e8d" style="fill: var(--color5, #fe7e8d)" d="M12.471 3.657c-0.298-1.094 0.591-2.554 2.531-3.475 0.353-0.167 0.79-0.346 0.835 0.093 0.184 1.785 0.595 4.177 2.588 4.966 0.582 0.23 1.118 0.563 1.58 0.958-1.669-1.087-7.047-0.749-7.535-2.542z"></path>
</symbol>
</defs>
</svg>
