<svg aria-hidden="true" style="position: absolute; width: 0; height: 0; overflow: hidden;" version="1.1" xmlns="http://www.w3.org/2000/svg" xmlns:xlink="http://www.w3.org/1999/xlink">
<defs>
<symbol id="vector" viewBox="0 0 19 32">
<path fill="none" stroke="#d41443" style="stroke: var(--color1, #d41443)" stroke-linejoin="round" stroke-linecap="round" stroke-miterlimit="4" stroke-width="6.4" d="M3.2 3.2l12.8 12.8-12.8 12.8"></path>
</symbol>
<symbol id="logo" viewBox="0 0 32 32">
<path fill="#e09d70" style="fill: var(--color2, #e09d70)" d="M21.345 12.906l-4.697 19.094h-1.296l-4.697-19.094z"></path>
<path fill="#d18b5c" style="fill: var(--color3, #d18b5c)" d="M21.258 13.259l-0.096 0.388-1.387-0.741h0.822l0.66 0.352zM20.974 14.412l-2.82-1.506h-0.822l3.546 1.894 0.095-0.388zM20.69 15.566l-4.979-2.66h-0.822l5.706 3.048 0.095-0.388zM20.407 16.719l-7.139-3.813h-0.822l7.865 4.201 0.095-0.388zM20.123 17.873l-9.298-4.967h-0.169l0.099 0.401 9.273 4.953 0.096-0.388zM19.839 19.026l-0.095 0.388-8.62-4.604-0.124-0.505 8.84 4.722zM19.555 20.18l-0.096 0.388-7.967-4.255-0.124-0.505 8.187 4.373zM19.272 21.333l-0.096 0.388-7.313-3.906-0.124-0.505 7.533 4.024zM18.988 22.487l-6.88-3.675 0.124 0.506 6.66 3.557 0.096-0.388zM18.704 23.64l-6.227-3.326 0.124 0.506 6.007 3.208 0.096-0.388zM18.42 24.794l-0.095 0.388-5.353-2.859-0.124-0.505 5.573 2.977zM18.137 25.947l-0.095 0.388-4.7-2.51-0.124-0.505 4.92 2.628zM17.853 27.101l-4.267-2.279 0.124 0.506 4.047 2.162 0.095-0.388zM17.569 28.254l-3.613-1.93 0.124 0.505 3.393 1.813 0.096-0.388zM17.285 29.408l-0.095 0.388-2.74-1.463-0.124-0.505 2.96 1.581zM17.002 30.561l-2.306-1.232 0.124 0.505 2.086 1.114 0.096-0.388zM16.718 31.715l-0.070 0.285h-0.218l-1.24-0.663-0.124-0.505 1.653 0.883z"></path>
<path fill="#f7c29e" style="fill: var(--color4, #f7c29e)" d="M21.345 12.906l-0.103 0.42-9.265 4.949-0.095-0.388 9.326-4.981h0.138zM20.996 14.324l-8.832 4.717 0.096 0.388 8.612-4.6 0.124-0.505zM20.626 15.826l-8.178 4.368 0.096 0.388 7.958-4.251 0.124-0.505zM20.257 17.329l-7.525 4.019 0.096 0.388 7.305-3.902 0.124-0.505zM19.887 18.831l-0.124 0.506-6.652 3.553-0.096-0.388 6.872-3.67zM19.518 20.334l-0.124 0.505-5.998 3.204-0.095-0.388 6.218-3.321zM19.148 21.836l-5.565 2.972 0.095 0.388 5.345-2.855 0.124-0.506zM18.778 23.338l-4.912 2.623 0.096 0.388 4.692-2.506 0.124-0.506zM18.409 24.841l-0.124 0.506-4.038 2.157-0.095-0.388 4.258-2.274zM18.039 26.343l-0.124 0.505-3.385 1.808-0.096-0.388 3.605-1.925zM17.67 27.846l-2.951 1.577 0.095 0.388 2.732-1.459 0.124-0.506zM17.3 29.348l-0.124 0.506-2.078 1.11-0.096-0.388 2.298-1.228zM16.93 30.851l-1.645 0.879 0.066 0.27h0.249l1.205-0.643 0.124-0.506zM11.692 17.122l7.893-4.216h-0.822l-7.166 3.828 0.096 0.388zM11.409 15.968l5.733-3.062h-0.822l-5.007 2.674 0.095 0.388zM11.125 14.815l3.574-1.909h-0.822l-2.847 1.521 0.095 0.388zM10.841 13.661l1.414-0.755h-0.822l-0.687 0.367 0.095 0.388z"></path>
<path fill="#fe7e8d" style="fill: var(--color5, #fe7e8d)" d="M19.112 13.017c-2.855 1.265-9.547 1.644-9.057-1.391s12.369-1.228 9.057 1.391z"></path>
<path fill="#fce3c8" style="fill: var(--color6, #fce3c8)" d="M12.258 8.429c-2.774 0.057-3.797 2.164-1.519 3.622 2.949 1.888 11.335 2.342 11.755 0.489s-6.102-4.196-10.236-4.111z"></path>
<path fill="#fe7e8d" style="fill: var(--color5, #fe7e8d)" d="M13.706 6.278c-2.752-0.133-5.080 1.776-2.252 3.463 3.11 1.855 7.776-0.099 10.834 2.002 0.717-1.825-4.481-5.267-8.582-5.465z"></path>
<path fill="#fce3c8" style="fill: var(--color6, #fce3c8)" d="M21.603 9.878c-2.922-2.401-5.331-1.173-8.272-2.277s-2.094-3.395-0.608-3.523c0.059-1.039-0.344-2.771 2.798-4.062 0.319 1.891 0.674 4.343 2.905 5.225s3.742 3.027 3.178 4.637z"></path>
<path fill="#fe7e8d" style="fill: var(--color5, #fe7e8d)" d="M12.471 3.657c-0.298-1.094 0.591-2.554 2.531-3.475 0.353-0.167 0.79-0.346 0.835 0.093 0.184 1.785 0.595 4.177 2.588 4.966 0.582 0.23 1.118 0.563 1.58 0.958-1.669-1.087-7.047-0.749-7.535-2.542z"></path>
</symbol>
<symbol id="arrow" viewBox="0 0 32 32">
<path d="M19.414 27.414l10-10c0.781-0.781 0.781-2.047 0-2.828l-10-10c-0.781-0.781-2.047-0.781-2.828 0s-0.781 2.047 0 2.828l6.586 6.586h-19.172c-1.105 0-2 0.895-2 2s0.895 2 2 2h19.172l-6.586 6.586c-0.39 0.39-0.586 0.902-0.586 1.414s0.195 1.024 0.586 1.414c0.781 0.781 2.047 0.781 2.828 0z"></path>
</symbol>
<symbol id="telegram" viewBox="0 0 33 32">
<path fill="#fea5bb" style="fill: var(--color1, #fea5bb)" d="M32.235 16c0 8.837-7.163 16-16 16s-16-7.163-16-16c0-8.837 7.163-16 16-16s16 7.163 16 16z"></path>
<path fill="#fff" style="fill: var(--color2, #fff)" d="M13.102 18.375l-0.318 4.169c0.454 0 0.651-0.182 0.887-0.401l2.13-1.9 4.414 3.017c0.81 0.421 1.38 0.199 1.598-0.695l2.898-12.673c0.257-1.117-0.433-1.554-1.222-1.28l-17.032 6.086c-1.162 0.421-1.145 1.026-0.198 1.3l4.355 1.264 10.115-5.907c0.476-0.294 0.909-0.131 0.553 0.163l-8.182 6.857z"></path>
</symbol>
<symbol id="github" viewBox="0 0 32 32">
<path fill="#fea5bb" style="fill: var(--color1, #fea5bb)" d="M32 16c0 8.837-7.163 16-16 16s-16-7.163-16-16c0-8.837 7.163-16 16-16s16 7.163 16 16z"></path>
<path fill="#fff" style="fill: var(--color2, #fff)" d="M16 6.588c-5.169 0-9.412 4.242-9.412 9.412 0 4.411 3.095 8.419 7.206 9.412v-3.114c-0.407 0.089-0.782 0.092-1.197-0.030-0.556-0.164-1.008-0.535-1.344-1.1-0.214-0.361-0.593-0.752-0.988-0.723l-0.097-1.099c0.855-0.073 1.595 0.521 2.034 1.258 0.195 0.328 0.419 0.52 0.708 0.605 0.278 0.082 0.577 0.043 0.926-0.081 0.088-0.698 0.407-0.959 0.649-1.326v-0.001c-2.451-0.366-3.428-1.666-3.816-2.693-0.514-1.363-0.238-3.066 0.671-4.142 0.018-0.021 0.050-0.076 0.037-0.114-0.417-1.258 0.091-2.3 0.11-2.41 0.481 0.142 0.559-0.143 2.088 0.786l0.264 0.159c0.111 0.066 0.076 0.028 0.186 0.020 0.639-0.174 1.312-0.269 1.975-0.278 0.668 0.009 1.337 0.104 2.002 0.285l0.086 0.009c-0.008-0.001 0.023-0.005 0.075-0.036 1.911-1.157 1.842-0.779 2.354-0.946 0.018 0.111 0.519 1.169 0.107 2.411-0.056 0.171 1.657 1.739 0.708 4.256-0.388 1.027-1.365 2.328-3.816 2.693v0.001c0.314 0.479 0.692 0.734 0.69 1.722v3.887c4.111-0.993 7.206-5 7.206-9.412 0-5.169-4.242-9.412-9.412-9.412v0z"></path>
</symbol>
<symbol id="facebook" viewBox="0 0 33 32">
<path fill="#fea5bb" style="fill: var(--color1, #fea5bb)" d="M16.471 32c8.837 0 16-7.163 16-16s-7.163-16-16-16c-8.837 0-16 7.163-16 16s7.163 16 16 16z"></path>
<path fill="#fff" style="fill: var(--color2, #fff)" d="M20.916 15.981h-2.61v9.618h-3.955v-9.618h-1.881v-3.38h1.881v-2.188c0-1.564 0.739-4.014 3.99-4.014l2.929 0.012v3.281h-2.125c-0.349 0-0.839 0.175-0.839 0.921v1.989h2.955l-0.346 3.377z"></path>
</symbol>
<symbol id="close" viewBox="0 0 32 32">
<path fill="#fff" style="fill: var(--color4, #fff)" d="M32 16c0 8.837-7.163 16-16 16s-16-7.163-16-16c0-8.837 7.163-16 16-16s16 7.163 16 16z"></path>
<path fill="none" stroke="#000" style="stroke: var(--color5, #000)" stroke-linejoin="miter" stroke-linecap="butt" stroke-miterlimit="4" stroke-width="1.0667" d="M31.467 16c0 8.542-6.925 15.467-15.467 15.467s-15.467-6.925-15.467-15.467c0-8.542 6.925-15.467 15.467-15.467s15.467 6.925 15.467 15.467z"></path>
<path d="M22.4 10.782l-1.182-1.182-4.685 4.685-4.685-4.685-1.182 1.182 4.685 4.685-4.685 4.685 1.182 1.182 4.685-4.685 4.685 4.685 1.182-1.182-4.685-4.685 4.685-4.685z"></path>
</symbol>
</defs>
</svg>
